<svg width="400" height="196" version="1.1" xmlns="http://www.w3.org/2000/svg" desc="Created with imagetracer.js version 1.2.6" ><path fill="rgb(0,0,0)" stroke="rgb(0,0,0)" stroke-width="1" opacity="0" d="M 0 0 L 332 0.5 Q 324.6 2.1 321 7.5 Q 315.2 13.2 317 26.5 Q 319.1 33.9 324.5 38 Q 330.2 43.8 343.5 42 Q 351.9 39.9 356 33.5 Q 360 28.5 360 19.5 Q 358.3 8.2 350.5 3 L 345 0.5 L 400 0 L 399.5 85 L 364.5 50 L 309.5 50 L 345 86.5 L 309 122.5 L 345 159.5 L 308.5 196 L 0 196 L 0 0 Z M 248 50 L 248 52 L 284 87 L 339 87 L 339 86 L 304 50 L 248 50 Z M 119 58 L 119 100 L 120 100 L 127 100 Q 125 90 132 88 L 142 100 L 151 100 L 138 83 L 150 70 Q 141 68 138 72 L 127 82 L 127 59 L 127 58 L 119 58 Z M 5 60 L 5 100 L 33 100 L 37 98 L 39 96 L 41 90 L 40 85 L 34 80 L 36 79 L 39 72 L 38 67 L 34 62 L 27 60 L 5 60 Z M 59 69 L 51 72 Q 46 76 44 83 L 45 92 L 47 95 Q 51 99 58 101 Q 66 102 70 99 Q 75 96 77 89 Q 78 80 75 77 Q 71 69 59 69 Z M 95 69 L 87 72 Q 81 76 80 84 Q 80 90 83 95 Q 87 99 94 101 Q 102 102 106 99 L 113 90 Q 114 81 111 77 Q 107 69 95 69 Z M 267 126 L 267 168 L 268 168 L 275 168 L 275 127 L 275 126 L 267 126 Z M 5 128 L 5 168 L 6 168 L 13 168 L 14 146 L 24 163 Q 23 166 29 164 L 40 145 L 41 145 L 41 168 L 42 168 L 49 168 L 49 129 Q 49 127 43 128 L 28 152 Q 29 154 27 153 L 12 130 L 12 128 L 5 128 Z M 121 137 L 115 140 Q 112 141 113 138 L 106 138 L 105 139 L 105 179 L 113 179 L 113 166 L 120 169 Q 128 170 133 166 L 138 158 Q 140 147 135 143 Q 131 137 121 137 Z M 153 137 L 148 138 L 142 142 L 146 147 L 152 144 Q 158 143 160 145 L 161 150 Q 150 148 145 152 L 141 159 L 142 164 L 150 169 L 160 168 L 162 167 L 163 168 L 169 168 L 169 145 L 167 142 Q 162 137 153 137 Z M 193 137 L 188 139 L 185 141 L 185 138 L 178 138 L 178 168 L 179 168 L 185 168 L 186 149 Q 189 144 196 145 L 196 137 L 193 137 Z M 213 137 L 205 140 Q 200 143 198 150 Q 197 158 200 162 Q 203 168 212 169 Q 220 170 224 167 L 228 162 L 223 158 L 217 162 Q 210 163 208 160 L 206 156 L 207 149 L 213 144 Q 220 143 222 148 L 228 145 L 227 143 Q 223 137 213 137 Z M 244 137 L 238 139 Q 232 142 230 150 Q 229 158 232 162 Q 235 168 244 169 L 255 168 L 259 165 Q 260 160 256 159 L 251 162 Q 243 163 240 160 L 238 157 L 261 156 L 262 155 Q 262 148 259 144 Q 255 137 244 137 Z M 53 138 L 66 169 L 63 173 Q 57 174 56 171 L 52 177 L 59 180 Q 65 181 68 178 L 73 171 L 86 141 L 86 138 L 80 138 L 71 156 Q 72 159 69 158 L 62 140 L 61 138 L 53 138 Z " /><path fill="rgb(0,0,0)" stroke="rgb(0,0,0)" stroke-width="1" opacity="0" d="M 13 67 L 26.5 67 L 30 69.5 Q 31.3 75.6 28.5 75 L 25.5 77 L 13 77 L 13 67 Z " /><path fill="rgb(0,0,0)" stroke="rgb(0,0,0)" stroke-width="1" opacity="0" d="M 58.5 76 Q 64.7 75.4 67 78 Q 69.9 80.9 69 88.5 L 66.5 92 Q 64.2 94.7 58.5 94 L 53 89.5 L 52 83.5 L 56.5 77 L 58.5 76 Z " /><path fill="rgb(0,0,0)" stroke="rgb(0,0,0)" stroke-width="1" opacity="0" d="M 94.5 76 Q 100.7 75.4 103 78 L 105 81.5 L 105 88.5 L 101.5 93 L 94.5 94 L 89 89.5 L 88 83.5 L 92.5 77 L 94.5 76 Z " /><path fill="rgb(0,0,0)" stroke="rgb(0,0,0)" stroke-width="1" opacity="0" d="M 13 83 L 25.5 83 L 29.5 84 L 32 86.5 Q 33 92 29.5 93 L 27.5 94 L 13 94 L 13 83 Z " /><path fill="rgb(0,0,0)" stroke="rgb(0,0,0)" stroke-width="1" opacity="0" d="M 399.5 88 L 400 157.5 L 365 123.5 L 399.5 88 Z " /><path fill="rgb(0,0,0)" stroke="rgb(0,0,0)" stroke-width="1" opacity="0" d="M 119.5 144 Q 125.7 143.4 128 146 Q 130.9 148.9 130 156.5 L 127.5 160 Q 125.2 162.7 119.5 162 L 114 157.5 L 113 151.5 L 117.5 145 L 119.5 144 Z " /><path fill="rgb(0,0,0)" stroke="rgb(0,0,0)" stroke-width="1" opacity="0" d="M 243.5 144 Q 251.1 142.9 253 147.5 L 254 149.5 L 238.5 150 L 239 148.5 L 241.5 145 L 243.5 144 Z " /><path fill="rgb(0,0,0)" stroke="rgb(0,0,0)" stroke-width="1" opacity="0" d="M 151.5 156 L 161.5 156 L 162 158.5 Q 160.4 163.9 152.5 163 L 149 160.5 Q 148.5 156.5 151.5 156 Z " /><path fill="rgb(0,0,0)" stroke="rgb(0,0,0)" stroke-width="1" opacity="0" d="M 399.5 161 L 400 196 L 365 195.5 L 399.5 161 Z " /><path fill="rgb(30,41,255)" stroke="rgb(30,41,255)" stroke-width="1" opacity="0.5019607843137255" d="M 332.5 0 L 335 0.5 L 332.5 1 L 332.5 0 Z " /><path fill="rgb(30,41,255)" stroke="rgb(30,41,255)" stroke-width="1" opacity="0.5019607843137255" d="M 341.5 0 L 347 1.5 L 345.5 2 L 341.5 1 L 341.5 0 Z " /><path fill="rgb(30,41,255)" stroke="rgb(30,41,255)" stroke-width="1" opacity="0.5019607843137255" d="M 329.5 1 L 331 1.5 L 322 7.5 L 318.5 14 L 318 12.5 L 324.5 4 L 329.5 1 Z " /><path fill="rgb(30,41,255)" stroke="rgb(30,41,255)" stroke-width="1" opacity="0.5019607843137255" d="M 348.5 2 L 356 8.5 L 357 10.5 L 355 9.5 L 350.5 4 L 348.5 2 Z " /><path fill="rgb(30,41,255)" stroke="rgb(30,41,255)" stroke-width="1" opacity="0.5019607843137255" d="M 357.5 12 L 359 16.5 L 358 16.5 L 357.5 12 Z " /><path fill="rgb(30,41,255)" stroke="rgb(30,41,255)" stroke-width="1" opacity="0.5019607843137255" d="M 317.5 15 L 318 18.5 L 317 18.5 L 317.5 15 Z " /><path fill="rgb(30,41,255)" stroke="rgb(30,41,255)" stroke-width="1" opacity="0.5019607843137255" d="M 359.5 19 L 360 22.5 L 359 22.5 L 359.5 19 Z " /><path fill="rgb(30,41,255)" stroke="rgb(30,41,255)" stroke-width="1" opacity="0.5019607843137255" d="M 317.5 23 L 318 26.5 L 317 26.5 L 317.5 23 Z " /><path fill="rgb(30,41,255)" stroke="rgb(30,41,255)" stroke-width="1" opacity="0.5019607843137255" d="M 358.5 25 L 359 27.5 L 358 27.5 L 358.5 25 Z " /><path fill="rgb(30,41,255)" stroke="rgb(30,41,255)" stroke-width="1" opacity="0.5019607843137255" d="M 318.5 28 L 324.5 37 L 331 40.5 L 329.5 41 L 321 34.5 L 318 29.5 L 318.5 28 Z " /><path fill="rgb(30,41,255)" stroke="rgb(30,41,255)" stroke-width="1" opacity="0.5019607843137255" d="M 356.5 31 L 356 32.5 L 350.5 39 L 348.5 40 L 349.5 38 L 355 33.5 L 356.5 31 Z " /><path fill="rgb(30,41,255)" stroke="rgb(30,41,255)" stroke-width="1" opacity="0.5019607843137255" d="M 332.5 41 L 335 41.5 L 332.5 42 L 332.5 41 Z " /><path fill="rgb(30,41,255)" stroke="rgb(30,41,255)" stroke-width="1" opacity="0.5019607843137255" d="M 341.5 41 L 344 41.5 L 341.5 42 L 341.5 41 Z " /><path fill="rgb(30,41,255)" stroke="rgb(30,41,255)" stroke-width="1" opacity="0.5019607843137255" d="M 248 50 L 303.5 50 L 339 85.5 L 338.5 87 L 283.5 87 L 248 51.5 L 248 50 Z M 250 51 L 284 86 L 338 86 L 304 51 L 250 51 Z " /><path fill="rgb(30,41,255)" stroke="rgb(30,41,255)" stroke-width="1" opacity="0.5019607843137255" d="M 309.5 50 L 364.5 50 L 400 85.5 L 364.5 51 L 311 51.5 L 346 86.5 L 310 122.5 L 346 159.5 L 309 195.5 L 345 159.5 L 309 123.5 L 345 86.5 L 309.5 50 Z " /><path fill="rgb(30,41,255)" stroke="rgb(30,41,255)" stroke-width="1" opacity="0.5019607843137255" d="M 119 58 L 126.5 58 L 127 58.5 L 127 81.5 L 137.5 72 L 140.5 70 L 138.5 73 L 126 83 L 126 59.5 L 125.5 59 L 120 59 L 119.5 100 L 119 58 Z " /><path fill="rgb(30,41,255)" stroke="rgb(30,41,255)" stroke-width="1" opacity="0.5019607843137255" d="M 5.5 60 L 27 60.5 L 5.5 61 L 5.5 60 Z " /><path fill="rgb(30,41,255)" stroke="rgb(30,41,255)" stroke-width="1" opacity="0.5019607843137255" d="M 28.5 61 L 31 61.5 L 28.5 62 L 28.5 61 Z " /><path fill="rgb(30,41,255)" stroke="rgb(30,41,255)" stroke-width="1" opacity="0.5019607843137255" d="M 32.5 62 L 38 66.5 L 37.5 69 L 33.5 63 L 32.5 62 Z " /><path fill="rgb(30,41,255)" stroke="rgb(30,41,255)" stroke-width="1" opacity="0.5019607843137255" d="M 12 66 L 25 66.5 L 13 67 L 13 77 L 24.5 77 L 24.5 78 L 13.5 78 L 12 76.5 L 12 66 Z " /><path fill="rgb(30,41,255)" stroke="rgb(30,41,255)" stroke-width="1" opacity="0.5019607843137255" d="M 58.5 69 L 64 69.5 L 58.5 70 L 58.5 69 Z " /><path fill="rgb(30,41,255)" stroke="rgb(30,41,255)" stroke-width="1" opacity="0.5019607843137255" d="M 94.5 69 L 100 69.5 L 94.5 70 L 94.5 69 Z " /><path fill="rgb(30,41,255)" stroke="rgb(30,41,255)" stroke-width="1" opacity="0.5019607843137255" d="M 30.5 70 L 31 73.5 L 30 73.5 L 30.5 70 Z " /><path fill="rgb(30,41,255)" stroke="rgb(30,41,255)" stroke-width="1" opacity="0.5019607843137255" d="M 54.5 70 L 56 70.5 L 47.5 76 L 50.5 72 L 54.5 70 Z " /><path fill="rgb(30,41,255)" stroke="rgb(30,41,255)" stroke-width="1" opacity="0.5019607843137255" d="M 90.5 70 L 93 70.5 Q 86.9 71.4 84 75.5 L 82.5 78 L 83 76.5 L 86.5 72 L 90.5 70 Z " /><path fill="rgb(30,41,255)" stroke="rgb(30,41,255)" stroke-width="1" opacity="0.5019607843137255" d="M 148 70 L 150 70.5 L 138 83.5 L 151 99.5 L 147 96.5 L 137 82.5 L 148 71.5 L 148 70 Z " /><path fill="rgb(30,41,255)" stroke="rgb(30,41,255)" stroke-width="1" opacity="0.5019607843137255" d="M 104.5 71 L 111 76.5 L 105.5 72 L 104.5 71 Z " /><path fill="rgb(30,41,255)" stroke="rgb(30,41,255)" stroke-width="1" opacity="0.5019607843137255" d="M 70.5 72 L 77 80.5 L 77 88.5 L 76 88.5 L 76 80.5 L 70.5 72 Z " /><path fill="rgb(30,41,255)" stroke="rgb(30,41,255)" stroke-width="1" opacity="0.5019607843137255" d="M 37.5 74 L 38 75.5 L 36 79 L 34 79.5 L 40 84.5 L 39.5 87 L 35.5 81 L 33 79.5 L 37.5 74 Z " /><path fill="rgb(30,41,255)" stroke="rgb(30,41,255)" stroke-width="1" opacity="0.5019607843137255" d="M 28.5 75 L 30 75.5 L 26.5 77 L 26.5 76 L 28.5 75 Z " /><path fill="rgb(30,41,255)" stroke="rgb(30,41,255)" stroke-width="1" opacity="0.5019607843137255" d="M 56.5 76 L 58 76.5 L 53.5 80 L 56.5 76 Z " /><path fill="rgb(30,41,255)" stroke="rgb(30,41,255)" stroke-width="1" opacity="0.5019607843137255" d="M 63.5 76 L 68 78.5 L 69 81.5 L 68 81.5 L 67 78 Q 62.8 78 63.5 76 Z " /><path fill="rgb(30,41,255)" stroke="rgb(30,41,255)" stroke-width="1" opacity="0.5019607843137255" d="M 92.5 76 L 94 76.5 L 89.5 80 L 92.5 76 Z " /><path fill="rgb(30,41,255)" stroke="rgb(30,41,255)" stroke-width="1" opacity="0.5019607843137255" d="M 99.5 76 L 104 78.5 L 105 80.5 L 103 79.5 Q 103.8 77.3 101.5 78 L 99.5 76 Z " /><path fill="rgb(30,41,255)" stroke="rgb(30,41,255)" stroke-width="1" opacity="0.5019607843137255" d="M 111.5 78 Q 114.7 81.3 113 89.5 L 112 89.5 Q 112.6 81.3 111.5 78 Z " /><path fill="rgb(30,41,255)" stroke="rgb(30,41,255)" stroke-width="1" opacity="0.5019607843137255" d="M 44.5 82 L 45 87.5 L 44 87.5 L 44.5 82 Z " /><path fill="rgb(30,41,255)" stroke="rgb(30,41,255)" stroke-width="1" opacity="0.5019607843137255" d="M 105.5 82 L 106 87.5 L 105 87.5 L 105.5 82 Z " /><path fill="rgb(30,41,255)" stroke="rgb(30,41,255)" stroke-width="1" opacity="0.5019607843137255" d="M 12.5 83 L 13 94 L 26 94.5 L 13.5 95 L 12 93.5 L 12.5 83 Z " /><path fill="rgb(30,41,255)" stroke="rgb(30,41,255)" stroke-width="1" opacity="0.5019607843137255" d="M 26.5 83 L 29 83.5 L 26.5 84 L 26.5 83 Z " /><path fill="rgb(30,41,255)" stroke="rgb(30,41,255)" stroke-width="1" opacity="0.5019607843137255" d="M 69.5 83 L 70 86.5 L 69 86.5 L 69.5 83 Z " /><path fill="rgb(30,41,255)" stroke="rgb(30,41,255)" stroke-width="1" opacity="0.5019607843137255" d="M 80.5 83 L 81 86.5 L 80 86.5 L 80.5 83 Z " /><path fill="rgb(30,41,255)" stroke="rgb(30,41,255)" stroke-width="1" opacity="0.5019607843137255" d="M 30.5 84 Q 34 85 33 90.5 L 28.5 94 L 28.5 93 L 32 90.5 Q 32.6 85 30.5 84 Z " /><path fill="rgb(30,41,255)" stroke="rgb(30,41,255)" stroke-width="1" opacity="0.5019607843137255" d="M 52.5 87 L 56.5 93 L 58 93.5 L 56.5 94 L 52 89.5 L 52.5 87 Z " /><path fill="rgb(30,41,255)" stroke="rgb(30,41,255)" stroke-width="1" opacity="0.5019607843137255" d="M 88.5 87 L 92.5 93 L 94 93.5 L 92.5 94 L 88 89.5 L 88.5 87 Z " /><path fill="rgb(30,41,255)" stroke="rgb(30,41,255)" stroke-width="1" opacity="0.5019607843137255" d="M 131.5 87 L 133.5 90 L 131.5 88 L 127 92.5 L 126.5 100 L 126 92.5 L 131.5 87 Z " /><path fill="rgb(30,41,255)" stroke="rgb(30,41,255)" stroke-width="1" opacity="0.5019607843137255" d="M 399.5 87 L 365 122.5 L 400 158.5 L 400 160.5 L 364 195.5 L 399 160.5 L 399 158.5 L 364 122.5 L 399.5 87 Z " /><path fill="rgb(30,41,255)" stroke="rgb(30,41,255)" stroke-width="1" opacity="0.5019607843137255" d="M 45.5 89 L 47 92.5 L 45 91.5 L 45.5 89 Z " /><path fill="rgb(30,41,255)" stroke="rgb(30,41,255)" stroke-width="1" opacity="0.5019607843137255" d="M 67.5 91 L 66.5 93 L 63.5 94 L 63.5 93 L 67.5 91 Z " /><path fill="rgb(30,41,255)" stroke="rgb(30,41,255)" stroke-width="1" opacity="0.5019607843137255" d="M 103.5 91 L 102.5 93 L 103.5 91 Z " /><path fill="rgb(30,41,255)" stroke="rgb(30,41,255)" stroke-width="1" opacity="0.5019607843137255" d="M 134.5 91 L 142 99.5 L 138 96.5 L 134.5 91 Z " /><path fill="rgb(30,41,255)" stroke="rgb(30,41,255)" stroke-width="1" opacity="0.5019607843137255" d="M 74.5 93 L 69.5 99 L 66.5 100 L 66.5 99 Q 72.3 97.8 74.5 93 Z " /><path fill="rgb(30,41,255)" stroke="rgb(30,41,255)" stroke-width="1" opacity="0.5019607843137255" d="M 99.5 93 L 101 93.5 L 95.5 95 L 95.5 94 L 99.5 93 Z " /><path fill="rgb(30,41,255)" stroke="rgb(30,41,255)" stroke-width="1" opacity="0.5019607843137255" d="M 110.5 93 L 105.5 99 L 110.5 93 Z " /><path fill="rgb(30,41,255)" stroke="rgb(30,41,255)" stroke-width="1" opacity="0.5019607843137255" d="M 47.5 94 L 50.5 98 L 47.5 94 Z " /><path fill="rgb(30,41,255)" stroke="rgb(30,41,255)" stroke-width="1" opacity="0.5019607843137255" d="M 59.5 94 L 62 94.5 L 59.5 95 L 59.5 94 Z " /><path fill="rgb(30,41,255)" stroke="rgb(30,41,255)" stroke-width="1" opacity="0.5019607843137255" d="M 83.5 94 L 86.5 98 L 83.5 94 Z " /><path fill="rgb(30,41,255)" stroke="rgb(30,41,255)" stroke-width="1" opacity="0.5019607843137255" d="M 38.5 95 L 36.5 98 L 38.5 95 Z " /><path fill="rgb(30,41,255)" stroke="rgb(30,41,255)" stroke-width="1" opacity="0.5019607843137255" d="M 33.5 98 L 35 98.5 L 29.5 100 L 29.5 99 L 33.5 98 Z " /><path fill="rgb(30,41,255)" stroke="rgb(30,41,255)" stroke-width="1" opacity="0.5019607843137255" d="M 57.5 100 L 65 100.5 L 57.5 101 L 57.5 100 Z " /><path fill="rgb(30,41,255)" stroke="rgb(30,41,255)" stroke-width="1" opacity="0.5019607843137255" d="M 93.5 100 L 101 100.5 L 93.5 101 L 93.5 100 Z " /><path fill="rgb(30,41,255)" stroke="rgb(30,41,255)" stroke-width="1" opacity="0.5019607843137255" d="M 267 126 L 275 126.5 L 268 127 L 267.5 168 L 267 126 Z " /><path fill="rgb(30,41,255)" stroke="rgb(30,41,255)" stroke-width="1" opacity="0.5019607843137255" d="M 5.5 128 Q 12.5 126.5 12 129.5 L 12.5 131 Q 11.3 127.8 5.5 129 L 5.5 128 Z " /><path fill="rgb(30,41,255)" stroke="rgb(30,41,255)" stroke-width="1" opacity="0.5019607843137255" d="M 42.5 128 Q 48.8 127.3 49 128.5 L 49 167.5 L 48 167.5 L 48 129.5 Q 47.9 128.4 42.5 129 L 41 129.5 L 42.5 128 Z " /><path fill="rgb(30,41,255)" stroke="rgb(30,41,255)" stroke-width="1" opacity="0.5019607843137255" d="M 40.5 131 L 40 132.5 L 38.5 135 L 39 133.5 L 40.5 131 Z " /><path fill="rgb(30,41,255)" stroke="rgb(30,41,255)" stroke-width="1" opacity="0.5019607843137255" d="M 13.5 132 L 16 135.5 L 14 134.5 L 13.5 132 Z " /><path fill="rgb(30,41,255)" stroke="rgb(30,41,255)" stroke-width="1" opacity="0.5019607843137255" d="M 37.5 136 L 37 137.5 L 35.5 140 L 36 138.5 L 37.5 136 Z " /><path fill="rgb(30,41,255)" stroke="rgb(30,41,255)" stroke-width="1" opacity="0.5019607843137255" d="M 16.5 137 L 19 140.5 L 17 139.5 L 16.5 137 Z " /><path fill="rgb(30,41,255)" stroke="rgb(30,41,255)" stroke-width="1" opacity="0.5019607843137255" d="M 120.5 137 L 125 137.5 L 120.5 138 L 120.5 137 Z " /><path fill="rgb(30,41,255)" stroke="rgb(30,41,255)" stroke-width="1" opacity="0.5019607843137255" d="M 152.5 137 L 158 137.5 L 152.5 138 L 152.5 137 Z " /><path fill="rgb(30,41,255)" stroke="rgb(30,41,255)" stroke-width="1" opacity="0.5019607843137255" d="M 192.5 137 L 196 137 L 196 145 L 191 144.5 L 195 144 L 195 138 L 192.5 138 L 192.5 137 Z " /><path fill="rgb(30,41,255)" stroke="rgb(30,41,255)" stroke-width="1" opacity="0.5019607843137255" d="M 212.5 137 L 217 137.5 L 212.5 138 L 212.5 137 Z " /><path fill="rgb(30,41,255)" stroke="rgb(30,41,255)" stroke-width="1" opacity="0.5019607843137255" d="M 243.5 137 L 249 137.5 L 243.5 138 L 243.5 137 Z " /><path fill="rgb(30,41,255)" stroke="rgb(30,41,255)" stroke-width="1" opacity="0.5019607843137255" d="M 60.5 138 L 65 147.5 L 64 147.5 L 60.5 138 Z " /><path fill="rgb(30,41,255)" stroke="rgb(30,41,255)" stroke-width="1" opacity="0.5019607843137255" d="M 85.5 138 L 86 140.5 L 84.5 143 L 84 141.5 L 85.5 138 Z " /><path fill="rgb(30,41,255)" stroke="rgb(30,41,255)" stroke-width="1" opacity="0.5019607843137255" d="M 105.5 138 L 106 178.5 L 105 178.5 L 105.5 138 Z " /><path fill="rgb(30,41,255)" stroke="rgb(30,41,255)" stroke-width="1" opacity="0.5019607843137255" d="M 112.5 138 L 113 140 L 118.5 138 L 118.5 139 L 112.5 142 L 112.5 138 Z " /><path fill="rgb(30,41,255)" stroke="rgb(30,41,255)" stroke-width="1" opacity="0.5019607843137255" d="M 127.5 138 L 132 140.5 L 130.5 140 Q 126.7 139.8 127.5 138 Z " /><path fill="rgb(30,41,255)" stroke="rgb(30,41,255)" stroke-width="1" opacity="0.5019607843137255" d="M 147.5 138 L 150 138.5 L 142.5 142 L 143.5 140 L 147.5 138 Z " /><path fill="rgb(30,41,255)" stroke="rgb(30,41,255)" stroke-width="1" opacity="0.5019607843137255" d="M 184.5 138 L 185.5 141 L 188 139.5 L 184 142 L 184.5 138 Z " /><path fill="rgb(30,41,255)" stroke="rgb(30,41,255)" stroke-width="1" opacity="0.5019607843137255" d="M 239.5 138 L 242 138.5 Q 235.6 139.6 233 144.5 L 231.5 148 L 231 146.5 L 237.5 139 L 239.5 138 Z " /><path fill="rgb(30,41,255)" stroke="rgb(30,41,255)" stroke-width="1" opacity="0.5019607843137255" d="M 78.5 139 L 79 140.5 L 77.5 143 L 77 141.5 L 78.5 139 Z " /><path fill="rgb(30,41,255)" stroke="rgb(30,41,255)" stroke-width="1" opacity="0.5019607843137255" d="M 222.5 139 L 227 142.5 L 228 144.5 L 226 145.5 L 226 143.5 L 224.5 141 L 222.5 139 Z " /><path fill="rgb(30,41,255)" stroke="rgb(30,41,255)" stroke-width="1" opacity="0.5019607843137255" d="M 165.5 140 L 166.5 142 L 165.5 140 Z " /><path fill="rgb(30,41,255)" stroke="rgb(30,41,255)" stroke-width="1" opacity="0.5019607843137255" d="M 204.5 140 L 201 144.5 L 199.5 148 L 199 146.5 L 204.5 140 Z " /><path fill="rgb(30,41,255)" stroke="rgb(30,41,255)" stroke-width="1" opacity="0.5019607843137255" d="M 255.5 140 L 258.5 144 L 255.5 140 Z " /><path fill="rgb(30,41,255)" stroke="rgb(30,41,255)" stroke-width="1" opacity="0.5019607843137255" d="M 34.5 141 L 34 142.5 L 31.5 147 L 32 145.5 L 34.5 141 Z " /><path fill="rgb(30,41,255)" stroke="rgb(30,41,255)" stroke-width="1" opacity="0.5019607843137255" d="M 133.5 141 Q 139.7 145.3 138 157.5 L 137 157.5 L 137 148.5 L 133.5 141 Z " /><path fill="rgb(30,41,255)" stroke="rgb(30,41,255)" stroke-width="1" opacity="0.5019607843137255" d="M 19.5 142 L 22 145.5 L 20 144.5 L 19.5 142 Z " /><path fill="rgb(30,41,255)" stroke="rgb(30,41,255)" stroke-width="1" opacity="0.5019607843137255" d="M 12.5 143 L 17 149.5 L 15 148.5 L 13.5 146 L 12.5 168 L 12.5 143 Z " /><path fill="rgb(30,41,255)" stroke="rgb(30,41,255)" stroke-width="1" opacity="0.5019607843137255" d="M 40.5 143 L 40 144.5 L 28.5 164 Q 23.1 165.9 24 162.5 L 23.5 161 Q 24.8 164 29 163 L 40.5 143 Z " /><path fill="rgb(30,41,255)" stroke="rgb(30,41,255)" stroke-width="1" opacity="0.5019607843137255" d="M 55.5 143 L 57 146.5 L 56 146.5 L 55.5 143 Z " /><path fill="rgb(30,41,255)" stroke="rgb(30,41,255)" stroke-width="1" opacity="0.5019607843137255" d="M 143.5 143 L 146 146.5 L 144 145.5 L 143.5 143 Z " /><path fill="rgb(30,41,255)" stroke="rgb(30,41,255)" stroke-width="1" opacity="0.5019607843137255" d="M 152.5 143 L 156 143.5 L 152.5 144 L 152.5 143 Z " /><path fill="rgb(30,41,255)" stroke="rgb(30,41,255)" stroke-width="1" opacity="0.5019607843137255" d="M 167.5 143 Q 169.8 143.8 169 147.5 L 168 147.5 L 167.5 143 Z " /><path fill="rgb(30,41,255)" stroke="rgb(30,41,255)" stroke-width="1" opacity="0.5019607843137255" d="M 243.5 143 Q 252.1 141.9 254 147.5 L 253.5 149 L 250.5 145 L 243.5 144 L 239 147.5 L 238.5 149 L 238 147.5 L 243.5 143 Z " /><path fill="rgb(30,41,255)" stroke="rgb(30,41,255)" stroke-width="1" opacity="0.5019607843137255" d="M 117.5 144 L 119 144.5 L 114.5 148 L 117.5 144 Z " /><path fill="rgb(30,41,255)" stroke="rgb(30,41,255)" stroke-width="1" opacity="0.5019607843137255" d="M 124.5 144 L 129 146.5 Q 131.8 149.2 131 155.5 L 130 155.5 Q 130.7 148.6 128 146 Q 123.8 146 124.5 144 Z " /><path fill="rgb(30,41,255)" stroke="rgb(30,41,255)" stroke-width="1" opacity="0.5019607843137255" d="M 210.5 144 L 212 144.5 L 207 148.5 L 206.5 150 L 206 148.5 L 210.5 144 Z " /><path fill="rgb(30,41,255)" stroke="rgb(30,41,255)" stroke-width="1" opacity="0.5019607843137255" d="M 217.5 144 L 223.5 147 L 225 146.5 L 221.5 148 L 217.5 144 Z " /><path fill="rgb(30,41,255)" stroke="rgb(30,41,255)" stroke-width="1" opacity="0.5019607843137255" d="M 160.5 145 L 162 151 L 149 150.5 L 161 150 L 160.5 145 Z " /><path fill="rgb(30,41,255)" stroke="rgb(30,41,255)" stroke-width="1" opacity="0.5019607843137255" d="M 188.5 145 L 190 145.5 L 186.5 148 L 188.5 145 Z " /><path fill="rgb(30,41,255)" stroke="rgb(30,41,255)" stroke-width="1" opacity="0.5019607843137255" d="M 75.5 146 L 76 147.5 L 74.5 150 L 74 148.5 L 75.5 146 Z " /><path fill="rgb(30,41,255)" stroke="rgb(30,41,255)" stroke-width="1" opacity="0.5019607843137255" d="M 82.5 146 L 83 147.5 L 80.5 152 L 80 150.5 L 82.5 146 Z " /><path fill="rgb(30,41,255)" stroke="rgb(30,41,255)" stroke-width="1" opacity="0.5019607843137255" d="M 22.5 147 L 25 150.5 L 23 149.5 L 22.5 147 Z " /><path fill="rgb(30,41,255)" stroke="rgb(30,41,255)" stroke-width="1" opacity="0.5019607843137255" d="M 30.5 148 L 30 149.5 L 28.5 152 L 29 150.5 L 30.5 148 Z " /><path fill="rgb(30,41,255)" stroke="rgb(30,41,255)" stroke-width="1" opacity="0.5019607843137255" d="M 65.5 149 L 68 154.5 L 67 154.5 L 65.5 149 Z " /><path fill="rgb(30,41,255)" stroke="rgb(30,41,255)" stroke-width="1" opacity="0.5019607843137255" d="M 185.5 149 L 186 151.5 L 185 151.5 L 185.5 149 Z " /><path fill="rgb(30,41,255)" stroke="rgb(30,41,255)" stroke-width="1" opacity="0.5019607843137255" d="M 198.5 149 L 199 156.5 L 198 156.5 L 198.5 149 Z " /><path fill="rgb(30,41,255)" stroke="rgb(30,41,255)" stroke-width="1" opacity="0.5019607843137255" d="M 230.5 149 L 231 156.5 L 230 156.5 L 230.5 149 Z " /><path fill="rgb(30,41,255)" stroke="rgb(30,41,255)" stroke-width="1" opacity="0.5019607843137255" d="M 58.5 150 L 61 155.5 L 60 155.5 L 58.5 150 Z " /><path fill="rgb(30,41,255)" stroke="rgb(30,41,255)" stroke-width="1" opacity="0.5019607843137255" d="M 237.5 150 L 255 150.5 L 237.5 151 L 237.5 150 Z " /><path fill="rgb(30,41,255)" stroke="rgb(30,41,255)" stroke-width="1" opacity="0.5019607843137255" d="M 17.5 151 L 20 154.5 L 18 153.5 L 17.5 151 Z " /><path fill="rgb(30,41,255)" stroke="rgb(30,41,255)" stroke-width="1" opacity="0.5019607843137255" d="M 146.5 151 L 148 151.5 L 144 153 L 142.5 156 L 143 154.5 L 144.5 152 L 146.5 151 Z " /><path fill="rgb(30,41,255)" stroke="rgb(30,41,255)" stroke-width="1" opacity="0.5019607843137255" d="M 205.5 151 L 208 160 L 216 162.5 L 212.5 163 L 207 159.5 Q 203.9 156.5 205.5 151 Z " /><path fill="rgb(30,41,255)" stroke="rgb(30,41,255)" stroke-width="1" opacity="0.5019607843137255" d="M 261.5 151 L 262 154.5 L 260.5 156 L 238.5 156 L 238.5 155 L 260.5 155 L 261.5 151 Z " /><path fill="rgb(30,41,255)" stroke="rgb(30,41,255)" stroke-width="1" opacity="0.5019607843137255" d="M 25.5 152 L 28 153.5 L 26 154.5 L 25.5 152 Z " /><path fill="rgb(30,41,255)" stroke="rgb(30,41,255)" stroke-width="1" opacity="0.5019607843137255" d="M 72.5 153 L 73 154.5 L 71.5 157 L 71 155.5 L 72.5 153 Z " /><path fill="rgb(30,41,255)" stroke="rgb(30,41,255)" stroke-width="1" opacity="0.5019607843137255" d="M 78.5 155 L 79 156.5 L 77.5 159 L 77 157.5 L 78.5 155 Z " /><path fill="rgb(30,41,255)" stroke="rgb(30,41,255)" stroke-width="1" opacity="0.5019607843137255" d="M 113.5 155 L 117.5 161 L 119 161.5 L 117.5 162 L 113 157.5 L 113.5 155 Z " /><path fill="rgb(30,41,255)" stroke="rgb(30,41,255)" stroke-width="1" opacity="0.5019607843137255" d="M 151.5 155 L 162 155.5 L 151.5 156 L 149.5 158 L 151.5 155 Z " /><path fill="rgb(30,41,255)" stroke="rgb(30,41,255)" stroke-width="1" opacity="0.5019607843137255" d="M 20.5 156 L 23 159.5 L 21 158.5 L 20.5 156 Z " /><path fill="rgb(30,41,255)" stroke="rgb(30,41,255)" stroke-width="1" opacity="0.5019607843137255" d="M 68.5 156 L 69 158 L 71 158.5 L 69 159.5 L 68.5 156 Z " /><path fill="rgb(30,41,255)" stroke="rgb(30,41,255)" stroke-width="1" opacity="0.5019607843137255" d="M 238.5 157 L 240 160 L 244 161.5 L 242.5 162 L 239 159.5 L 238.5 157 Z " /><path fill="rgb(30,41,255)" stroke="rgb(30,41,255)" stroke-width="1" opacity="0.5019607843137255" d="M 141.5 158 L 142 160.5 L 141 160.5 L 141.5 158 Z " /><path fill="rgb(30,41,255)" stroke="rgb(30,41,255)" stroke-width="1" opacity="0.5019607843137255" d="M 221.5 158 L 223 158.5 L 217.5 162 L 217.5 161 L 221.5 158 Z " /><path fill="rgb(30,41,255)" stroke="rgb(30,41,255)" stroke-width="1" opacity="0.5019607843137255" d="M 62.5 159 L 64 162.5 L 63 162.5 L 62.5 159 Z " /><path fill="rgb(30,41,255)" stroke="rgb(30,41,255)" stroke-width="1" opacity="0.5019607843137255" d="M 128.5 159 L 127.5 161 L 120.5 163 L 120.5 162 Q 126.6 162.6 128.5 159 Z " /><path fill="rgb(30,41,255)" stroke="rgb(30,41,255)" stroke-width="1" opacity="0.5019607843137255" d="M 136.5 159 L 137 160.5 L 135 161.5 L 136.5 159 Z " /><path fill="rgb(30,41,255)" stroke="rgb(30,41,255)" stroke-width="1" opacity="0.5019607843137255" d="M 161.5 159 L 158.5 163 L 157 162.5 L 161.5 159 Z " /><path fill="rgb(30,41,255)" stroke="rgb(30,41,255)" stroke-width="1" opacity="0.5019607843137255" d="M 224.5 159 L 228 161.5 L 226.5 161 L 224.5 159 Z " /><path fill="rgb(30,41,255)" stroke="rgb(30,41,255)" stroke-width="1" opacity="0.5019607843137255" d="M 254.5 159 L 259 162.5 L 255.5 160 L 251.5 162 L 251.5 161 L 254.5 159 Z " /><path fill="rgb(30,41,255)" stroke="rgb(30,41,255)" stroke-width="1" opacity="0.5019607843137255" d="M 149.5 161 L 152 162.5 L 150.5 163 L 149.5 161 Z " /><path fill="rgb(30,41,255)" stroke="rgb(30,41,255)" stroke-width="1" opacity="0.5019607843137255" d="M 200.5 161 L 209 167.5 L 207.5 168 L 200.5 161 Z " /><path fill="rgb(30,41,255)" stroke="rgb(30,41,255)" stroke-width="1" opacity="0.5019607843137255" d="M 232.5 161 L 239 166.5 L 237.5 167 L 232.5 161 Z " /><path fill="rgb(30,41,255)" stroke="rgb(30,41,255)" stroke-width="1" opacity="0.5019607843137255" d="M 75.5 162 L 76 163.5 L 74.5 166 L 74 164.5 L 75.5 162 Z " /><path fill="rgb(30,41,255)" stroke="rgb(30,41,255)" stroke-width="1" opacity="0.5019607843137255" d="M 142.5 162 L 146.5 167 L 148 167.5 L 146.5 168 L 142 163.5 L 142.5 162 Z " /><path fill="rgb(30,41,255)" stroke="rgb(30,41,255)" stroke-width="1" opacity="0.5019607843137255" d="M 245.5 162 L 250 162.5 L 245.5 163 L 245.5 162 Z " /><path fill="rgb(30,41,255)" stroke="rgb(30,41,255)" stroke-width="1" opacity="0.5019607843137255" d="M 134.5 163 L 132.5 166 L 134.5 163 Z " /><path fill="rgb(30,41,255)" stroke="rgb(30,41,255)" stroke-width="1" opacity="0.5019607843137255" d="M 226.5 163 L 223.5 167 L 220.5 168 L 220.5 167 L 226.5 163 Z " /><path fill="rgb(30,41,255)" stroke="rgb(30,41,255)" stroke-width="1" opacity="0.5019607843137255" d="M 258.5 164 L 257.5 166 L 258.5 164 Z " /><path fill="rgb(30,41,255)" stroke="rgb(30,41,255)" stroke-width="1" opacity="0.5019607843137255" d="M 161.5 165 Q 164.1 164.2 163 167.5 L 162 167.5 L 161.5 166 L 158.5 168 L 158.5 167 L 161.5 165 Z " /><path fill="rgb(30,41,255)" stroke="rgb(30,41,255)" stroke-width="1" opacity="0.5019607843137255" d="M 115.5 166 L 118 167.5 L 116.5 168 L 115.5 166 Z " /><path fill="rgb(30,41,255)" stroke="rgb(30,41,255)" stroke-width="1" opacity="0.5019607843137255" d="M 255.5 166 L 254.5 168 L 252 167.5 L 255.5 166 Z " /><path fill="rgb(30,41,255)" stroke="rgb(30,41,255)" stroke-width="1" opacity="0.5019607843137255" d="M 119.5 168 L 126 168.5 L 119.5 169 L 119.5 168 Z " /><path fill="rgb(30,41,255)" stroke="rgb(30,41,255)" stroke-width="1" opacity="0.5019607843137255" d="M 149.5 168 L 157 168.5 L 149.5 169 L 149.5 168 Z " /><path fill="rgb(30,41,255)" stroke="rgb(30,41,255)" stroke-width="1" opacity="0.5019607843137255" d="M 211.5 168 L 219 168.5 L 211.5 169 L 211.5 168 Z " /><path fill="rgb(30,41,255)" stroke="rgb(30,41,255)" stroke-width="1" opacity="0.5019607843137255" d="M 243.5 168 L 251 168.5 L 243.5 169 L 243.5 168 Z " /><path fill="rgb(30,41,255)" stroke="rgb(30,41,255)" stroke-width="1" opacity="0.5019607843137255" d="M 72.5 169 L 73 170.5 L 67.5 178 L 70 174.5 L 72.5 169 Z " /><path fill="rgb(30,41,255)" stroke="rgb(30,41,255)" stroke-width="1" opacity="0.5019607843137255" d="M 55.5 171 L 54.5 173 L 55.5 171 Z " /><path fill="rgb(30,41,255)" stroke="rgb(30,41,255)" stroke-width="1" opacity="0.5019607843137255" d="M 64.5 171 L 63.5 173 L 64.5 171 Z " /><path fill="rgb(30,41,255)" stroke="rgb(30,41,255)" stroke-width="1" opacity="0.5019607843137255" d="M 59.5 173 L 62 173.5 L 59.5 174 L 59.5 173 Z " /><path fill="rgb(30,41,255)" stroke="rgb(30,41,255)" stroke-width="1" opacity="0.5019607843137255" d="M 52.5 176 L 53.5 178 L 52.5 176 Z " /><path fill="rgb(30,41,255)" stroke="rgb(30,41,255)" stroke-width="1" opacity="0.5019607843137255" d="M 58.5 179 L 63 179.5 L 58.5 180 L 58.5 179 Z " /><path fill="rgb(31,42,255)" stroke="rgb(31,42,255)" stroke-width="1" opacity="1" d="M 335.5 0 Q 349.8 -0.3 355 8.5 L 359 17.5 L 359 24.5 Q 357.1 33.6 350.5 38 Q 345.2 42.2 335.5 42 Q 326.9 40.1 322 34.5 Q 317 29.5 317 19.5 Q 318.6 10 324.5 5 L 335.5 0 Z " /><path fill="rgb(31,42,255)" stroke="rgb(31,42,255)" stroke-width="1" opacity="1" d="M 249.5 51 L 303.5 51 L 338 85.5 L 283.5 86 L 249.5 51 Z " /><path fill="rgb(31,42,255)" stroke="rgb(31,42,255)" stroke-width="1" opacity="1" d="M 311.5 51 L 364.5 51 L 400 86.5 L 364 123.5 L 399 158.5 L 399 160.5 L 363.5 196 L 310.5 196 L 346 159.5 L 310 123.5 L 346 86.5 L 311.5 51 Z " /><path fill="rgb(31,42,255)" stroke="rgb(31,42,255)" stroke-width="1" opacity="1" d="M 120 59 L 125.5 59 L 126 59.5 L 126 82.5 L 127.5 83 L 141.5 70 L 148 70 L 137 83.5 L 150 99.5 L 142.5 100 L 131.5 87 L 126 92.5 L 126 100 L 120.5 100 L 120 99.5 L 120 59 Z " /><path fill="rgb(31,42,255)" stroke="rgb(31,42,255)" stroke-width="1" opacity="1" d="M 5 61 L 27.5 61 Q 34.1 61.9 37 66.5 L 38 73.5 L 33 79.5 L 39 84.5 L 40 91.5 L 35.5 98 L 28.5 100 L 5 100 L 5 61 Z M 12 66 L 12 77 L 14 78 Q 25 79 30 76 L 31 74 L 30 68 Q 24 64 12 66 Z M 12 83 L 12 94 L 14 95 L 30 94 Q 34 93 33 87 L 29 83 L 12 83 Z " /><path fill="rgb(31,42,255)" stroke="rgb(31,42,255)" stroke-width="1" opacity="1" d="M 56.5 70 Q 69.8 68.8 74 76.5 Q 77.5 80.5 76 89.5 Q 74.6 95.6 69.5 98 Q 65.5 101.5 56.5 100 Q 50 98.5 47 93.5 Q 44 89.5 45 81.5 Q 46.3 75.8 50.5 73 L 56.5 70 Z M 57 76 Q 50 79 52 90 L 60 95 L 67 93 L 70 87 L 68 79 Q 65 74 57 76 Z " /><path fill="rgb(31,42,255)" stroke="rgb(31,42,255)" stroke-width="1" opacity="1" d="M 93.5 70 Q 106.9 69.1 111 77.5 Q 113.3 82.3 112 90.5 L 104.5 99 L 92.5 100 Q 86 98.5 83 93.5 Q 80 89.5 81 81.5 L 86.5 73 L 93.5 70 Z M 93 76 Q 86 79 88 90 L 96 95 L 103 93 L 106 88 Q 107 81 104 79 Q 101 74 93 76 Z " /><path fill="rgb(31,42,255)" stroke="rgb(31,42,255)" stroke-width="1" opacity="1" d="M 268 127 L 274.5 127 L 275 127.5 L 275 168 L 268.5 168 L 268 167.5 L 268 127 Z " /><path fill="rgb(31,42,255)" stroke="rgb(31,42,255)" stroke-width="1" opacity="1" d="M 5 129 Q 11.3 127.5 13 131.5 L 26.5 155 L 42.5 129 Q 47.9 128.4 48 129.5 L 48 168 L 41.5 168 L 41 167.5 L 41 143.5 L 39 144.5 L 29 163 Q 24.3 164 23 160.5 L 12.5 143 L 12 168 L 5.5 168 L 5 167.5 L 5 129 Z " /><path fill="rgb(31,42,255)" stroke="rgb(31,42,255)" stroke-width="1" opacity="1" d="M 54 138 Q 59.4 136.5 61 139.5 L 69.5 160 L 73 154.5 L 79 138 L 85 138 L 85 140.5 L 74 166.5 Q 71.8 173.8 66.5 178 L 57.5 179 L 53 176.5 L 55.5 172 L 61.5 174 L 65 171.5 L 66 166.5 L 54 138 Z " /><path fill="rgb(31,42,255)" stroke="rgb(31,42,255)" stroke-width="1" opacity="1" d="M 106 138 L 112 138 L 112 141.5 L 113.5 141 Q 117.3 136.8 126.5 138 L 134 142.5 Q 138.7 147.3 137 158.5 L 131.5 166 Q 127.5 169.5 118.5 168 L 113.5 165 L 113 179 L 106.5 179 L 106 178.5 L 106 138 Z M 118 144 Q 111 147 113 158 L 121 163 L 128 161 L 131 156 Q 132 149 129 147 Q 126 142 118 144 Z " /><path fill="rgb(31,42,255)" stroke="rgb(31,42,255)" stroke-width="1" opacity="1" d="M 150.5 138 Q 162.7 136.3 167 142.5 L 169 148.5 L 169 168 L 163 168 Q 164.5 164.3 161.5 165 Q 158.4 169.9 148.5 168 L 143 163.5 L 142 156.5 L 144 153 L 148.5 151 L 162 151 L 161 145 L 152.5 143 L 145 146 L 143 141 L 150.5 138 Z M 152 155 Q 148 156 149 162 L 154 164 L 159 163 L 162 160 L 162 155 L 152 155 Z " /><path fill="rgb(31,42,255)" stroke="rgb(31,42,255)" stroke-width="1" opacity="1" d="M 178 138 L 184 138 L 184 142 L 185.5 142 Q 188.1 137.4 195 138 L 195 144 L 191.5 144 L 186 147.5 L 185 149.5 L 185 168 L 178.5 168 L 178 167.5 L 178 138 Z " /><path fill="rgb(31,42,255)" stroke="rgb(31,42,255)" stroke-width="1" opacity="1" d="M 210.5 138 Q 222 136.5 226 142.5 L 227 144.5 L 221.5 147 Q 219.5 142 210.5 144 Q 204.6 146.6 205 155.5 L 208.5 161 L 215.5 163 L 223.5 159 L 227 161 L 223.5 166 Q 219.2 169.7 209.5 168 L 200 160.5 L 199 148.5 L 205.5 140 L 210.5 138 Z " /><path fill="rgb(31,42,255)" stroke="rgb(31,42,255)" stroke-width="1" opacity="1" d="M 242.5 138 Q 255 137 259 144.5 Q 261.9 148.4 261 155 L 238.5 155 L 238 157.5 L 240.5 161 Q 243.4 163.6 249.5 163 L 255.5 160 Q 262 163 256.5 166 Q 251.8 169.3 242.5 168 Q 235.3 166.2 232 160.5 L 231 148.5 L 237.5 140 L 242.5 138 Z M 244 143 L 242 144 Q 238 144 238 150 L 238 151 L 255 151 L 254 148 Q 252 142 244 143 Z " /></svg>